<?xml version="1.0" encoding="UTF-8"?>
<svg width="30px" height="20px" viewBox="0 0 30 20" version="1.1" xmlns="http://www.w3.org/2000/svg" xmlns:xlink="http://www.w3.org/1999/xlink">
    <!-- Generator: Sketch 47.1 (45422) - http://www.bohemiancoding.com/sketch -->
    <title>diet/meat</title>
    <desc>Created with Sketch.</desc>
    <defs></defs>
    <g id="Symbols" stroke="none" stroke-width="1" fill="none" fill-rule="evenodd">
        <g id="diet/meat" fill="#BF491F">
            <g id="Group" transform="translate(6.500000, 10.000000) scale(-1, 1) translate(-6.500000, -10.000000) translate(3.000000, 3.000000)">
                <path d="M3.27303896,5.28271484 C3.85996746,5.63043194 4.6048826,6.38403847 4.35409365,8.05493164 C4.08090697,9.87505074 6.96371279,9.29634534 6.96371279,6.82593846 C6.96371279,3.05607675 5.36997487,0 3.40399951,0 C2.45216438,0 1.58758366,0.716360405 0.948883321,1.88325857 C0.57127613,2.57314257 0.118542156,3.40087591 0.0171599116,4.3644074 C-0.162385844,6.07080078 1.07684701,3.98161344 3.27303896,5.28271484 Z" id="Oval-2" transform="translate(3.481856, 4.560101) scale(-1, 1) translate(-3.481856, -4.560101) "></path>
                <path d="M5.25,8.40344238 C6.21649831,8.40344238 7,8.46649831 7,7.5 C7,6.53350169 6.21649831,5.75 5.25,5.75 C4.28350169,5.75 3.5,6.53350169 3.5,7.5 C3.5,8.46649831 4.28350169,8.40344238 5.25,8.40344238 Z" id="Oval"></path>
                <path d="M3.5,14 C4.54633318,14 5.48542782,13.0817145 6.12679779,11.6261158 C6.67029514,10.3926404 7.00733744,9.3770752 5.07434082,9.3770752 C4.13146767,9.3770752 3.24948837,9.79530433 2.33105469,10.0158691 C1.36659541,10.2474871 0.392508118,10.2948646 0.580374771,10.8618468 C1.20699474,12.7529881 2.28068356,14 3.5,14 Z" id="Oval-2"></path>
            </g>
            <path d="M6.49991302,20 C2.91011018,20 0,15.5228475 0,10 C0,4.4771525 2.91011018,0 6.49991302,0 C10.0897159,0 13.0117056,0.343652464 16.9303154,4.97509766 C17.6822727,5.8638437 18.2917137,7.11872219 19.1485762,8.2021536 C20.1155723,9.42483969 21.0001682,9.9866689 23.1578369,10 C25.1928439,10.0125732 24.4849453,6.57321295 26.4276609,6.56726074 C28.061184,6.56225586 27.6229798,7.64819852 28.0984373,8.2021536 C28.5738948,8.75610868 29.96521,8.16296387 30,10 C30.03479,11.8370361 28.3825684,11.644165 25.5283449,13.2758789 C22.4040468,15.0619902 18.4007547,20 6.49991302,20 Z M6.49991302,18 C8.98516114,18 10.9998528,14.418278 10.9998528,10 C10.9998528,5.581722 8.98516114,2 6.49991302,2 C4.0146649,2 1.99997324,5.581722 1.99997324,10 C1.99997324,14.418278 4.0146649,18 6.49991302,18 Z M26.482605,7.88146973 C27.1870125,7.88598697 26.9565899,8.54227156 27.432312,9.04650879 C27.9080341,9.55074602 29.0039062,9.03564453 29.0170288,10 C29.0301514,10.9643555 26.7850418,11.4913662 26.0056763,11.8485107 C25.2263107,12.2056553 24.7344674,12.4199407 23.4116211,13.3755493 C22.0887748,14.3311579 21.2726864,10.9224308 22.6807251,11.0379028 C24.0887638,11.1533749 24.4571455,10.8026144 25.2207642,9.79827881 C25.9843829,8.79394325 25.7781974,7.87695248 26.482605,7.88146973 Z" id="Combined-Shape"></path>
        </g>
    </g>
</svg>