<?xml version="1.0" encoding="UTF-8"?>
<svg width="30px" height="20px" viewBox="0 0 30 20" version="1.1" xmlns="http://www.w3.org/2000/svg" xmlns:xlink="http://www.w3.org/1999/xlink">
    <!-- Generator: Sketch 47.1 (45422) - http://www.bohemiancoding.com/sketch -->
    <title>diet/leaf</title>
    <desc>Created with Sketch.</desc>
    <defs></defs>
    <g id="Symbols" stroke="none" stroke-width="1" fill="none" fill-rule="evenodd">
        <g id="diet/leaf" fill="#357900">
            <path d="M16.2998047,11.9033203 C14.1415202,8.28051758 14.2104085,5.48050944 16.5064697,3.5032959 C18.8025309,1.52608236 23.3003743,0.358317057 30,0 C29.0616048,6.61271159 27.31368,10.7203369 24.7562256,12.322876 C22.1987712,13.925415 19.7476807,14.1133626 17.4029541,12.8867188 C16.7480876,13.7541504 16.2987467,14.6953532 16.0549316,15.7103271 C16.8116455,17.2365723 16.9321064,17.6390836 16.8116455,18.4720459 C16.7313383,19.0273541 16.2723132,19.5366722 15.4345703,20 C15.4345703,18.5603841 15.1503499,17.307902 14.5819092,16.2425537 C14.0134684,15.1772054 13.4911702,14.5422363 13.0150146,14.3376465 C11.2925212,15.4774577 9.2590332,15.7751872 6.91455078,15.230835 C4.57006836,14.6864827 2.2652181,12.6977132 0,9.26452637 C3.05818685,7.54667155 6.14729818,6.9753418 9.26733398,7.55053711 C12.3873698,8.12573242 13.8985189,9.94710286 13.8007813,13.0146484 L15,14.3376465 C15.2333639,13.8475014 15.4462545,13.406502 15.6386719,13.0146484 C15.8310892,12.6227949 16.0514668,12.2523522 16.2998047,11.9033203 Z" id="Path-7" transform="translate(15.000000, 10.000000) scale(-1, 1) translate(-15.000000, -10.000000) "></path>
        </g>
    </g>
</svg>